<svg xmlns="http://www.w3.org/2000/svg" xmlns:svg="http://www.w3.org/2000/svg" xmlns:xlink="http://www.w3.org/1999/xlink" version="1.0" height="896pt" width="1025pt" viewBox="185 407 1033 902" ><defs><style type="text/css">
            @font-face {
                font-family: 'noto_regular';
                src: url('https://app.creately.com/diagram/assets/fonts/noto/noto-regular.woff') format('woff'),
                     url('https://app.creately.com/diagram/assets/fonts/noto/noto-regular.woff2') format('woff2');
                font-weight: normal;
                font-style: normal;
            }
        p {
            margin: 0;
        }
        </style></defs><defs><style>
            span{ display: inline-block; }
        </style></defs><g id="4gc0imo6ox"><g transform="translate(595 590)"><rect x="0" y="0" width="159.99999171495438" height="90.00000005960464" rx="10" ry="10" fill="rgba(255,255,255,1)" stroke="#03c9a9" stroke-width="1.5" stroke-linecap="round" stroke-linejoin="round"/><rect x="0" y="30" width="159.99999171495438" height="30.000000059604645" fill="rgb(255,255,255)" stroke="#03c9a9" stroke-width="1.5" stroke-linecap="round" stroke-linejoin="round"/></g><g transform="translate(609.4999958574772, 569.5000000298023) rotate(0, 65.5, 65.5)" width="131" height="131"><text text-decoration="none" x="32.5" fill="rgb(75, 75, 75)" font-size="10pt" font-family="Lato"  y="14">Process&#160;</text><text text-decoration="none" x="81.5" fill="rgb(75, 75, 75)" font-size="10pt" font-family="Lato"  y="14">1.0</text><text text-decoration="none" x="98.5" fill="rgb(75, 75, 75)" font-size="10pt" font-family="Lato"  y="14"></text><text text-decoration="none" x="65.5" fill="rgb(75, 75, 75)" font-size="10pt" font-family="Lato"  y="33"></text><text text-decoration="none" x="61.5" fill="rgb(75, 75, 75)" font-size="10pt" font-family="Lato"  y="52">--</text><text text-decoration="none" x="69.5" fill="rgb(75, 75, 75)" font-size="10pt" font-family="Lato"  y="52"></text><text text-decoration="none" x="46" fill="rgb(75, 75, 75)" font-size="10pt" font-family="Lato"  y="71">Profile</text><text text-decoration="none" x="85" fill="rgb(75, 75, 75)" font-size="10pt" font-family="Lato"  y="71"></text><text text-decoration="none" x="61.5" fill="rgb(75, 75, 75)" font-size="10pt" font-family="Lato"  y="90">--</text><text text-decoration="none" x="69.5" fill="rgb(75, 75, 75)" font-size="10pt" font-family="Lato"  y="90"></text><text text-decoration="none" x="7" fill="rgb(75, 75, 75)" font-size="10pt" font-family="Lato"  y="109">//This&#160;</text><text text-decoration="none" x="44" fill="rgb(75, 75, 75)" font-size="10pt" font-family="Lato"  y="109">is&#160;</text><text text-decoration="none" x="56" fill="rgb(75, 75, 75)" font-size="10pt" font-family="Lato"  y="109">a&#160;</text><text text-decoration="none" x="66" fill="rgb(75, 75, 75)" font-size="10pt" font-family="Lato"  y="109">comment</text><text text-decoration="none" x="124" fill="rgb(75, 75, 75)" font-size="10pt" font-family="Lato"  y="109"></text><text text-decoration="none" x="7.5" fill="rgb(75, 75, 75)" font-size="10pt" font-family="Lato"  y="128">//&#160;</text><text text-decoration="none" x="20.5" fill="rgb(75, 75, 75)" font-size="10pt" font-family="Lato"  y="128">--&#160;</text><text text-decoration="none" x="31.5" fill="rgb(75, 75, 75)" font-size="10pt" font-family="Lato"  y="128">This&#160;</text><text text-decoration="none" x="58.5" fill="rgb(75, 75, 75)" font-size="10pt" font-family="Lato"  y="128">is&#160;</text><text text-decoration="none" x="70.5" fill="rgb(75, 75, 75)" font-size="10pt" font-family="Lato"  y="128">a&#160;</text><text text-decoration="none" x="80.5" fill="rgb(75, 75, 75)" font-size="10pt" font-family="Lato"  y="128">section&#160;</text><text text-decoration="none" x="48.5" fill="rgb(75, 75, 75)" font-size="10pt" font-family="Lato"  y="150">break</text><text text-decoration="none" x="82.5" fill="#4b4b4b" font-size="10pt" font-family="noto_regular"  y="150"></text></g><g transform="translate(638.9999958574772, 625) rotate(0, 36, 0)" width="72" height="18"><text text-decoration="none" x="2" fill="rgb(75, 75, 75)" font-size="10pt" font-family="noto_regular"  y="17">Description</text><text text-decoration="none" x="70" fill="#4b4b4b" font-size="10pt" font-family="noto_regular"  y="17"></text></g><g transform="translate(648.4999958574772, 656.0000000596046) rotate(0, 26.5, 9)" width="53" height="18"><text text-decoration="none" x="0.5" fill="rgb(80, 80, 80)" font-size="10pt" font-family="noto_regular"  y="17">Location</text><text text-decoration="none" x="52.5" fill="#4b4b4b" font-size="10pt" font-family="noto_regular"  y="17"></text></g></g><g id="3totf25j2s"><g transform="translate(255 605)"><rect x="0" y="0" width="144.99998092651367" height="60.00000238418579" fill="rgba(255,255,255,1)" stroke="#03c9a9" stroke-width="1.5" stroke-linecap="round" stroke-linejoin="round"/></g><g transform="translate(304.99999046325684, 623.0000011920929) rotate(0, 22.5, 12)" width="45" height="24"><text text-decoration="none" x="0.5" fill="rgb(0, 0, 0)" font-size="15pt" font-family="Lato"  y="21">User</text><text text-decoration="none" x="44.5" fill="#4b4b4b" font-size="10pt" font-family="noto_regular"  y="21"></text></g></g><g id="3pcrjlfvo2"><g transform="translate(1005 640)"><path d="M 200,0 L 0,0 L 0,35 L 200,35" fill="rgba(255,255,255,1)" stroke="#03c9a9" stroke-width="1.5" stroke-linecap="round" stroke-linejoin="round"/></g><g transform="translate(1046, 648) rotate(0, 59, 9.5)" width="118" height="19"><text text-decoration="none" x="5" fill="rgb(0, 0, 0)" font-size="10pt" font-family="Lato"  y="17">Account&#160;</text><text text-decoration="none" x="57" fill="rgb(0, 0, 0)" font-size="10pt" font-family="Lato"  y="17">Database</text><text text-decoration="none" x="113" fill="#4b4b4b" font-size="10pt" font-family="noto_regular"  y="17"></text></g></g><g id="2olz3lcf9b"><g><path d="M 400,635 L 595,635" fill="none" stroke="#f6902a" stroke-width="1.5" stroke-linecap="round" stroke-linejoin="round"/><path d="M 595,635 L 586.304347826087,629.25 L 586.304347826087,640.75 Z" fill="rgb(246,144,42)" stroke="#f6902a" stroke-width="1.5" stroke-linecap="round" stroke-linejoin="round"/></g></g><g id="1i1660lnz3"><g transform="translate(430 605)"><rect x="0" y="0" width="150" height="37" fill="rgba(255,255,255,0.01)" stroke="rgba(255,255,255,0.01)" stroke-width="NaN" stroke-linecap="round" stroke-linejoin="round"/></g><g transform="translate(487.5, 614) rotate(0, 17.5, 9.5)" width="35" height="19"><text text-decoration="none" x="1" fill="rgb(75, 75, 75)" font-size="10pt" font-family="Lato"  y="17">Login</text><text text-decoration="none" x="34" fill="#4b4b4b" font-size="10pt" font-family="noto_regular"  y="17"></text></g></g><g id="dw47uv0tur"><g><path d="M 755,610 L 869,610 L 869,610.125 L 869,610.25 L 957,610.25 L 1045,610.25 L 1045,640" fill="none" stroke="#f6902a" stroke-width="1.5" stroke-linecap="round" stroke-linejoin="round"/><path d="M 1045,640 L 1050.75,631.304347826087 L 1039.25,631.304347826087 Z" fill="rgb(246,144,42)" stroke="#f6902a" stroke-width="1.5" stroke-linecap="round" stroke-linejoin="round"/></g></g><g id="2m9eniuyzu"><g><path d="M 1005,660 L 755,660" fill="none" stroke="#f6902a" stroke-width="1.5" stroke-linecap="round" stroke-linejoin="round"/><path d="M 755,660 L 763.695652173913,665.75 L 763.695652173913,654.25 Z" fill="rgb(246,144,42)" stroke="#f6902a" stroke-width="1.5" stroke-linecap="round" stroke-linejoin="round"/></g></g><g id="3ffk22dje5"><g transform="translate(810 655)"><rect x="0" y="0" width="150" height="37" fill="rgba(255,255,255,0.01)" stroke="rgba(255,255,255,0.01)" stroke-width="NaN" stroke-linecap="round" stroke-linejoin="round"/></g><g transform="translate(860.5, 664) rotate(0, 24.5, 9.5)" width="49" height="19"><text text-decoration="none" x="1.5" fill="rgb(75, 75, 75)" font-size="10pt" font-family="Lato"  y="17">Verified</text><text text-decoration="none" x="47.5" fill="#4b4b4b" font-size="10pt" font-family="noto_regular"  y="17"></text></g></g><g id="20and3xo25"><g transform="translate(810 580)"><rect x="0" y="0" width="150" height="37" fill="rgba(255,255,255,0.01)" stroke="rgba(255,255,255,0.01)" stroke-width="NaN" stroke-linecap="round" stroke-linejoin="round"/></g><g transform="translate(840, 589) rotate(0, 45, 9.5)" width="90" height="19"><text text-decoration="none" x="5.5" fill="rgb(75, 75, 75)" font-size="10pt" font-family="Lato"  y="17">Check&#160;</text><text text-decoration="none" x="44.5" fill="rgb(75, 75, 75)" font-size="10pt" font-family="Lato"  y="17">Details</text><text text-decoration="none" x="84.5" fill="#4b4b4b" font-size="10pt" font-family="noto_regular"  y="17"></text></g></g><g id="vke6ufcoz9"><g transform="translate(595 745)"><rect x="0" y="0" width="159.99999171495438" height="90.00000005960464" rx="10" ry="10" fill="rgba(255,255,255,1)" stroke="#03c9a9" stroke-width="1.5" stroke-linecap="round" stroke-linejoin="round"/><rect x="0" y="30" width="159.99999171495438" height="30.000000059604645" fill="rgb(255,255,255)" stroke="#03c9a9" stroke-width="1.5" stroke-linecap="round" stroke-linejoin="round"/></g><g transform="translate(609.4999958574772, 724.5000000298023) rotate(0, 65.5, 65.5)" width="131" height="131"><text text-decoration="none" x="32.5" fill="rgb(75, 75, 75)" font-size="10pt" font-family="Lato"  y="14">Process&#160;</text><text text-decoration="none" x="81.5" fill="rgb(75, 75, 75)" font-size="10pt" font-family="Lato"  y="14">2.0</text><text text-decoration="none" x="98.5" fill="rgb(75, 75, 75)" font-size="10pt" font-family="Lato"  y="14"></text><text text-decoration="none" x="65.5" fill="rgb(75, 75, 75)" font-size="10pt" font-family="Lato"  y="33"></text><text text-decoration="none" x="61.5" fill="rgb(75, 75, 75)" font-size="10pt" font-family="Lato"  y="52">--</text><text text-decoration="none" x="69.5" fill="rgb(75, 75, 75)" font-size="10pt" font-family="Lato"  y="52"></text><text text-decoration="none" x="19.5" fill="rgb(75, 75, 75)" font-size="10pt" font-family="Lato"  y="71">Account&#160;</text><text text-decoration="none" x="71.5" fill="rgb(75, 75, 75)" font-size="10pt" font-family="Lato"  y="71">Details</text><text text-decoration="none" x="111.5" fill="rgb(75, 75, 75)" font-size="10pt" font-family="Lato"  y="71"></text><text text-decoration="none" x="61.5" fill="rgb(75, 75, 75)" font-size="10pt" font-family="Lato"  y="90">--</text><text text-decoration="none" x="69.5" fill="rgb(75, 75, 75)" font-size="10pt" font-family="Lato"  y="90"></text><text text-decoration="none" x="7" fill="rgb(75, 75, 75)" font-size="10pt" font-family="Lato"  y="109">//This&#160;</text><text text-decoration="none" x="44" fill="rgb(75, 75, 75)" font-size="10pt" font-family="Lato"  y="109">is&#160;</text><text text-decoration="none" x="56" fill="rgb(75, 75, 75)" font-size="10pt" font-family="Lato"  y="109">a&#160;</text><text text-decoration="none" x="66" fill="rgb(75, 75, 75)" font-size="10pt" font-family="Lato"  y="109">comment</text><text text-decoration="none" x="124" fill="rgb(75, 75, 75)" font-size="10pt" font-family="Lato"  y="109"></text><text text-decoration="none" x="7.5" fill="rgb(75, 75, 75)" font-size="10pt" font-family="Lato"  y="128">//&#160;</text><text text-decoration="none" x="20.5" fill="rgb(75, 75, 75)" font-size="10pt" font-family="Lato"  y="128">--&#160;</text><text text-decoration="none" x="31.5" fill="rgb(75, 75, 75)" font-size="10pt" font-family="Lato"  y="128">This&#160;</text><text text-decoration="none" x="58.5" fill="rgb(75, 75, 75)" font-size="10pt" font-family="Lato"  y="128">is&#160;</text><text text-decoration="none" x="70.5" fill="rgb(75, 75, 75)" font-size="10pt" font-family="Lato"  y="128">a&#160;</text><text text-decoration="none" x="80.5" fill="rgb(75, 75, 75)" font-size="10pt" font-family="Lato"  y="128">section&#160;</text><text text-decoration="none" x="48.5" fill="rgb(75, 75, 75)" font-size="10pt" font-family="Lato"  y="150">break</text><text text-decoration="none" x="82.5" fill="#4b4b4b" font-size="10pt" font-family="noto_regular"  y="150"></text></g><g transform="translate(638.9999958574772, 780) rotate(0, 36, 0)" width="72" height="18"><text text-decoration="none" x="2" fill="rgb(75, 75, 75)" font-size="10pt" font-family="noto_regular"  y="17">Description</text><text text-decoration="none" x="70" fill="#4b4b4b" font-size="10pt" font-family="noto_regular"  y="17"></text></g><g transform="translate(648.4999958574772, 811.0000000596046) rotate(0, 26.5, 9)" width="53" height="18"><text text-decoration="none" x="0.5" fill="rgb(80, 80, 80)" font-size="10pt" font-family="noto_regular"  y="17">Location</text><text text-decoration="none" x="52.5" fill="#4b4b4b" font-size="10pt" font-family="noto_regular"  y="17"></text></g></g><g id="24jkha46u1"><g><path d="M 675,680 L 675,745" fill="none" stroke="#f6902a" stroke-width="1.5" stroke-linecap="round" stroke-linejoin="round"/><path d="M 675,745 L 680.75,736.304347826087 L 669.25,736.304347826087 Z" fill="rgb(246,144,42)" stroke="#f6902a" stroke-width="1.5" stroke-linecap="round" stroke-linejoin="round"/></g></g><g id="167egeyv61"><g transform="translate(620 700)"><rect x="0" y="0" width="150" height="37" fill="rgba(255,255,255,0.01)" stroke="rgba(255,255,255,0.01)" stroke-width="NaN" stroke-linecap="round" stroke-linejoin="round"/></g><g transform="translate(679, 709) rotate(0, 16, 9.5)" width="32" height="19"><text text-decoration="none" x="1.5" fill="rgb(75, 75, 75)" font-size="10pt" font-family="Lato"  y="17">Valid</text><text text-decoration="none" x="30.5" fill="#4b4b4b" font-size="10pt" font-family="noto_regular"  y="17"></text></g></g><g id="2omgjtzi4o"><g><path d="M 755,765 L 1045,765 L 1045,675" fill="none" stroke="#f6902a" stroke-width="1.5" stroke-linecap="round" stroke-linejoin="round"/><path d="M 1045,675 L 1039.25,683.695652173913 L 1050.75,683.695652173913 Z" fill="rgb(246,144,42)" stroke="#f6902a" stroke-width="1.5" stroke-linecap="round" stroke-linejoin="round"/></g></g><g id="16x0vgrgcb"><g><path d="M 1085,675 L 1085,815 L 755,815" fill="none" stroke="#f6902a" stroke-width="1.5" stroke-linecap="round" stroke-linejoin="round"/><path d="M 755,815 L 763.695652173913,820.75 L 763.695652173913,809.25 Z" fill="rgb(246,144,42)" stroke="#f6902a" stroke-width="1.5" stroke-linecap="round" stroke-linejoin="round"/></g></g><g id="a0vm3qh8io"><g transform="translate(860 785)"><rect x="0" y="0" width="150" height="37" fill="rgba(255,255,255,0.01)" stroke="rgba(255,255,255,0.01)" stroke-width="NaN" stroke-linecap="round" stroke-linejoin="round"/></g><g transform="translate(895, 794) rotate(0, 40, 9.5)" width="80" height="19"><text text-decoration="none" x="5" fill="rgb(75, 75, 75)" font-size="10pt" font-family="Lato"  y="17">User&#160;</text><text text-decoration="none" x="35" fill="rgb(75, 75, 75)" font-size="10pt" font-family="Lato"  y="17">Details</text><text text-decoration="none" x="75" fill="#4b4b4b" font-size="10pt" font-family="noto_regular"  y="17"></text></g></g><g id="a1x0ntq631"><g transform="translate(835 735)"><rect x="0" y="0" width="150" height="37" fill="rgba(255,255,255,0.01)" stroke="rgba(255,255,255,0.01)" stroke-width="NaN" stroke-linecap="round" stroke-linejoin="round"/></g><g transform="translate(888.5, 744) rotate(0, 21.5, 9.5)" width="43" height="19"><text text-decoration="none" x="0" fill="rgb(75, 75, 75)" font-size="10pt" font-family="Lato"  y="17">Yes/No</text><text text-decoration="none" x="43" fill="#4b4b4b" font-size="10pt" font-family="noto_regular"  y="17"></text></g></g><g id="l7sbvb0kkj"><g transform="translate(595 900)"><rect x="0" y="0" width="159.99999171495438" height="90.00000005960464" rx="10" ry="10" fill="rgba(255,255,255,1)" stroke="#03c9a9" stroke-width="1.5" stroke-linecap="round" stroke-linejoin="round"/><rect x="0" y="30" width="159.99999171495438" height="30.000000059604645" fill="rgb(255,255,255)" stroke="#03c9a9" stroke-width="1.5" stroke-linecap="round" stroke-linejoin="round"/></g><g transform="translate(609.4999958574772, 879.5000000298023) rotate(0, 65.5, 65.5)" width="131" height="131"><text text-decoration="none" x="32.5" fill="rgb(75, 75, 75)" font-size="10pt" font-family="Lato"  y="14">Process&#160;</text><text text-decoration="none" x="81.5" fill="rgb(75, 75, 75)" font-size="10pt" font-family="Lato"  y="14">3.0</text><text text-decoration="none" x="98.5" fill="rgb(75, 75, 75)" font-size="10pt" font-family="Lato"  y="14"></text><text text-decoration="none" x="65.5" fill="rgb(75, 75, 75)" font-size="10pt" font-family="Lato"  y="33"></text><text text-decoration="none" x="61.5" fill="rgb(75, 75, 75)" font-size="10pt" font-family="Lato"  y="52">--</text><text text-decoration="none" x="69.5" fill="rgb(75, 75, 75)" font-size="10pt" font-family="Lato"  y="52"></text><text text-decoration="none" x="14.5" fill="rgb(75, 75, 75)" font-size="10pt" font-family="Lato"  y="71">Application&#160;</text><text text-decoration="none" x="84.5" fill="rgb(75, 75, 75)" font-size="10pt" font-family="Lato"  y="71">Form</text><text text-decoration="none" x="116.5" fill="rgb(75, 75, 75)" font-size="10pt" font-family="Lato"  y="71"></text><text text-decoration="none" x="61.5" fill="rgb(75, 75, 75)" font-size="10pt" font-family="Lato"  y="90">--</text><text text-decoration="none" x="69.5" fill="rgb(75, 75, 75)" font-size="10pt" font-family="Lato"  y="90"></text><text text-decoration="none" x="7" fill="rgb(75, 75, 75)" font-size="10pt" font-family="Lato"  y="109">//This&#160;</text><text text-decoration="none" x="44" fill="rgb(75, 75, 75)" font-size="10pt" font-family="Lato"  y="109">is&#160;</text><text text-decoration="none" x="56" fill="rgb(75, 75, 75)" font-size="10pt" font-family="Lato"  y="109">a&#160;</text><text text-decoration="none" x="66" fill="rgb(75, 75, 75)" font-size="10pt" font-family="Lato"  y="109">comment</text><text text-decoration="none" x="124" fill="rgb(75, 75, 75)" font-size="10pt" font-family="Lato"  y="109"></text><text text-decoration="none" x="7.5" fill="rgb(75, 75, 75)" font-size="10pt" font-family="Lato"  y="128">//&#160;</text><text text-decoration="none" x="20.5" fill="rgb(75, 75, 75)" font-size="10pt" font-family="Lato"  y="128">--&#160;</text><text text-decoration="none" x="31.5" fill="rgb(75, 75, 75)" font-size="10pt" font-family="Lato"  y="128">This&#160;</text><text text-decoration="none" x="58.5" fill="rgb(75, 75, 75)" font-size="10pt" font-family="Lato"  y="128">is&#160;</text><text text-decoration="none" x="70.5" fill="rgb(75, 75, 75)" font-size="10pt" font-family="Lato"  y="128">a&#160;</text><text text-decoration="none" x="80.5" fill="rgb(75, 75, 75)" font-size="10pt" font-family="Lato"  y="128">section&#160;</text><text text-decoration="none" x="48.5" fill="rgb(75, 75, 75)" font-size="10pt" font-family="Lato"  y="150">break</text><text text-decoration="none" x="82.5" fill="#4b4b4b" font-size="10pt" font-family="noto_regular"  y="150"></text></g><g transform="translate(638.9999958574772, 935) rotate(0, 36, 0)" width="72" height="18"><text text-decoration="none" x="2" fill="rgb(75, 75, 75)" font-size="10pt" font-family="noto_regular"  y="17">Description</text><text text-decoration="none" x="70" fill="#4b4b4b" font-size="10pt" font-family="noto_regular"  y="17"></text></g><g transform="translate(648.4999958574772, 966.0000000596046) rotate(0, 26.5, 9)" width="53" height="18"><text text-decoration="none" x="0.5" fill="rgb(80, 80, 80)" font-size="10pt" font-family="noto_regular"  y="17">Location</text><text text-decoration="none" x="52.5" fill="#4b4b4b" font-size="10pt" font-family="noto_regular"  y="17"></text></g></g><g id="2ldr1av8x6"><g transform="translate(1015 925)"><path d="M 200,0 L 0,0 L 0,35 L 200,35" fill="rgba(255,255,255,1)" stroke="#03c9a9" stroke-width="1.5" stroke-linecap="round" stroke-linejoin="round"/></g><g transform="translate(1027, 933) rotate(0, 88, 9.5)" width="176" height="19"><text text-decoration="none" x="7.5" fill="rgb(0, 0, 0)" font-size="10pt" font-family="Lato"  y="17">Application&#160;</text><text text-decoration="none" x="77.5" fill="rgb(0, 0, 0)" font-size="10pt" font-family="Lato"  y="17">Form&#160;</text><text text-decoration="none" x="112.5" fill="rgb(0, 0, 0)" font-size="10pt" font-family="Lato"  y="17">Database</text><text text-decoration="none" x="168.5" fill="#4b4b4b" font-size="10pt" font-family="noto_regular"  y="17"></text></g></g><g id="205xbt6km9"><g><path d="M 755,945 L 1015,945" fill="none" stroke="#f6902a" stroke-width="1.5" stroke-linecap="round" stroke-linejoin="round"/><path d="M 1015,945 L 1006.304347826087,939.25 L 1006.304347826087,950.75 Z" fill="rgb(246,144,42)" stroke="#f6902a" stroke-width="1.5" stroke-linecap="round" stroke-linejoin="round"/></g></g><g id="dns89pogxu"><g transform="translate(825 920)"><rect x="0" y="0" width="150" height="34.749603271484375" fill="rgba(255,255,255,0.01)" stroke="rgba(255,255,255,0.01)" stroke-width="NaN" stroke-linecap="round" stroke-linejoin="round"/></g><g transform="translate(850, 927.8748016357422) rotate(0, 50, 9.5)" width="100" height="19"><text text-decoration="none" x="2.5" fill="rgb(75, 75, 75)" font-size="10pt" font-family="Lato"  y="17">Submitted&#160;</text><text text-decoration="none" x="68.5" fill="rgb(75, 75, 75)" font-size="10pt" font-family="Lato"  y="17">/&#160;</text><text text-decoration="none" x="76.5" fill="rgb(75, 75, 75)" font-size="10pt" font-family="Lato"  y="17">not</text><text text-decoration="none" x="97.5" fill="#4b4b4b" font-size="10pt" font-family="noto_regular"  y="17"></text></g></g><g id="9bm69o47le"><g><path d="M 675,835 L 675,900" fill="none" stroke="#f6902a" stroke-width="1.5" stroke-linecap="round" stroke-linejoin="round"/><path d="M 675,900 L 680.75,891.304347826087 L 669.25,891.304347826087 Z" fill="rgb(246,144,42)" stroke="#f6902a" stroke-width="1.5" stroke-linecap="round" stroke-linejoin="round"/></g></g><g id="1wvy57ha02"><g transform="translate(630 850)"><rect x="0" y="0" width="150" height="37" fill="rgba(255,255,255,0.01)" stroke="rgba(255,255,255,0.01)" stroke-width="NaN" stroke-linecap="round" stroke-linejoin="round"/></g><g transform="translate(677.5, 859) rotate(0, 27.5, 9.5)" width="55" height="19"><text text-decoration="none" x="1.5" fill="rgb(75, 75, 75)" font-size="10pt" font-family="Lato"  y="17">Updated</text><text text-decoration="none" x="53.5" fill="#4b4b4b" font-size="10pt" font-family="noto_regular"  y="17"></text></g></g><g id="1x6m6wflhx"><g><path d="M 675,990 L 675,1050" fill="none" stroke="#f6902a" stroke-width="1.5" stroke-linecap="round" stroke-linejoin="round"/><path d="M 675,1050 L 680.75,1041.304347826087 L 669.25,1041.304347826087 Z" fill="rgb(246,144,42)" stroke="#f6902a" stroke-width="1.5" stroke-linecap="round" stroke-linejoin="round"/></g></g><g id="7wqogv0t41"><g transform="translate(655 1010)"><rect x="0" y="0" width="150" height="37" fill="rgba(255,255,255,0.01)" stroke="rgba(255,255,255,0.01)" stroke-width="NaN" stroke-linecap="round" stroke-linejoin="round"/></g><g transform="translate(674.5, 1019) rotate(0, 55.5, 9.5)" width="111" height="19"><text text-decoration="none" x="5" fill="rgb(75, 75, 75)" font-size="10pt" font-family="Lato"  y="17">Valid&#160;</text><text text-decoration="none" x="37" fill="rgb(75, 75, 75)" font-size="10pt" font-family="Lato"  y="17">Submission</text><text text-decoration="none" x="106" fill="#4b4b4b" font-size="10pt" font-family="noto_regular"  y="17"></text></g></g><g id="2a47ys901p"><g transform="translate(595 1050)"><rect x="0" y="0" width="159.99999171495438" height="91" rx="10" ry="10" fill="rgba(255,255,255,1)" stroke="#03c9a9" stroke-width="1.5" stroke-linecap="round" stroke-linejoin="round"/><rect x="0" y="30" width="159.99999171495438" height="31" fill="rgb(255,255,255)" stroke="#03c9a9" stroke-width="1.5" stroke-linecap="round" stroke-linejoin="round"/></g><g transform="translate(609.4999958574772, 1030) rotate(0, 65.5, 65.5)" width="131" height="131"><text text-decoration="none" x="32.5" fill="rgb(75, 75, 75)" font-size="10pt" font-family="Lato"  y="14">Process&#160;</text><text text-decoration="none" x="81.5" fill="rgb(75, 75, 75)" font-size="10pt" font-family="Lato"  y="14">4.0</text><text text-decoration="none" x="98.5" fill="rgb(75, 75, 75)" font-size="10pt" font-family="Lato"  y="14"></text><text text-decoration="none" x="65.5" fill="rgb(75, 75, 75)" font-size="10pt" font-family="Lato"  y="33"></text><text text-decoration="none" x="61.5" fill="rgb(75, 75, 75)" font-size="10pt" font-family="Lato"  y="52">--</text><text text-decoration="none" x="69.5" fill="rgb(75, 75, 75)" font-size="10pt" font-family="Lato"  y="52"></text><text text-decoration="none" x="31.5" fill="rgb(75, 75, 75)" font-size="10pt" font-family="Lato"  y="71">Verification</text><text text-decoration="none" x="99.5" fill="rgb(75, 75, 75)" font-size="10pt" font-family="Lato"  y="71"></text><text text-decoration="none" x="61.5" fill="rgb(75, 75, 75)" font-size="10pt" font-family="Lato"  y="90">--</text><text text-decoration="none" x="69.5" fill="rgb(75, 75, 75)" font-size="10pt" font-family="Lato"  y="90"></text><text text-decoration="none" x="7" fill="rgb(75, 75, 75)" font-size="10pt" font-family="Lato"  y="109">//This&#160;</text><text text-decoration="none" x="44" fill="rgb(75, 75, 75)" font-size="10pt" font-family="Lato"  y="109">is&#160;</text><text text-decoration="none" x="56" fill="rgb(75, 75, 75)" font-size="10pt" font-family="Lato"  y="109">a&#160;</text><text text-decoration="none" x="66" fill="rgb(75, 75, 75)" font-size="10pt" font-family="Lato"  y="109">comment</text><text text-decoration="none" x="124" fill="rgb(75, 75, 75)" font-size="10pt" font-family="Lato"  y="109"></text><text text-decoration="none" x="7.5" fill="rgb(75, 75, 75)" font-size="10pt" font-family="Lato"  y="128">//&#160;</text><text text-decoration="none" x="20.5" fill="rgb(75, 75, 75)" font-size="10pt" font-family="Lato"  y="128">--&#160;</text><text text-decoration="none" x="31.5" fill="rgb(75, 75, 75)" font-size="10pt" font-family="Lato"  y="128">This&#160;</text><text text-decoration="none" x="58.5" fill="rgb(75, 75, 75)" font-size="10pt" font-family="Lato"  y="128">is&#160;</text><text text-decoration="none" x="70.5" fill="rgb(75, 75, 75)" font-size="10pt" font-family="Lato"  y="128">a&#160;</text><text text-decoration="none" x="80.5" fill="rgb(75, 75, 75)" font-size="10pt" font-family="Lato"  y="128">section&#160;</text><text text-decoration="none" x="48.5" fill="rgb(75, 75, 75)" font-size="10pt" font-family="Lato"  y="150">break</text><text text-decoration="none" x="82.5" fill="#4b4b4b" font-size="10pt" font-family="noto_regular"  y="150"></text></g><g transform="translate(638.9999958574772, 1085) rotate(0, 36, 0)" width="72" height="18"><text text-decoration="none" x="2" fill="rgb(75, 75, 75)" font-size="10pt" font-family="noto_regular"  y="17">Description</text><text text-decoration="none" x="70" fill="#4b4b4b" font-size="10pt" font-family="noto_regular"  y="17"></text></g><g transform="translate(648.4999958574772, 1117) rotate(0, 26.5, 9)" width="53" height="18"><text text-decoration="none" x="0.5" fill="rgb(80, 80, 80)" font-size="10pt" font-family="noto_regular"  y="17">Location</text><text text-decoration="none" x="52.5" fill="#4b4b4b" font-size="10pt" font-family="noto_regular"  y="17"></text></g></g><g id="rztx6vwjho"><g><path d="M 755,1095 L 1055,1095 L 1055,960" fill="none" stroke="#f6902a" stroke-width="1.5" stroke-linecap="round" stroke-linejoin="round"/><path d="M 1055,960 L 1049.25,968.695652173913 L 1060.75,968.695652173913 Z" fill="rgb(246,144,42)" stroke="#f6902a" stroke-width="1.5" stroke-linecap="round" stroke-linejoin="round"/></g></g><g id="29zq9mdwb8"><g transform="translate(240 1065)"><rect x="0" y="0" width="144.99998092651367" height="60.00000238418579" fill="rgba(255,255,255,1)" stroke="#03c9a9" stroke-width="1.5" stroke-linecap="round" stroke-linejoin="round"/></g><g transform="translate(279.99999046325684, 1083.000001192093) rotate(0, 32.5, 12)" width="65" height="24"><text text-decoration="none" x="2" fill="rgb(0, 0, 0)" font-size="15pt" font-family="Lato"  y="21">Admin</text><text text-decoration="none" x="63" fill="#4b4b4b" font-size="10pt" font-family="noto_regular"  y="21"></text></g></g><g id="1n9hx5pzrt"><g><path d="M 385,1095 L 595,1095" fill="none" stroke="#f6902a" stroke-width="1.5" stroke-linecap="round" stroke-linejoin="round"/><path d="M 595,1095 L 586.304347826087,1089.25 L 586.304347826087,1100.75 Z" fill="rgb(246,144,42)" stroke="#f6902a" stroke-width="1.5" stroke-linecap="round" stroke-linejoin="round"/></g></g><g id="1j20624fw6"><g transform="translate(385 1070)"><rect x="0" y="0" width="150" height="34.749603271484375" fill="rgba(255,255,255,0.01)" stroke="rgba(255,255,255,0.01)" stroke-width="NaN" stroke-linecap="round" stroke-linejoin="round"/></g><g transform="translate(426.5, 1077.8748016357422) rotate(0, 33.5, 9.5)" width="67" height="19"><text text-decoration="none" x="2" fill="rgb(75, 75, 75)" font-size="10pt" font-family="Lato"  y="17">Valid&#160;</text><text text-decoration="none" x="34" fill="rgb(75, 75, 75)" font-size="10pt" font-family="Lato"  y="17">/&#160;</text><text text-decoration="none" x="42" fill="rgb(75, 75, 75)" font-size="10pt" font-family="Lato"  y="17">Not</text><text text-decoration="none" x="65" fill="#4b4b4b" font-size="10pt" font-family="noto_regular"  y="17"></text></g></g><g id="2k2rr2ggmu"><g transform="translate(600 1195)"><rect x="0" y="0" width="150.5" height="91" rx="10" ry="10" fill="rgba(255,255,255,1)" stroke="#03c9a9" stroke-width="1.5" stroke-linecap="round" stroke-linejoin="round"/><rect x="0" y="30" width="150.5" height="31" fill="rgb(255,255,255)" stroke="#03c9a9" stroke-width="1.5" stroke-linecap="round" stroke-linejoin="round"/></g><g transform="translate(609.75, 1175) rotate(0, 65.5, 65.5)" width="131" height="131"><text text-decoration="none" x="32.5" fill="rgb(75, 75, 75)" font-size="10pt" font-family="Lato"  y="14">Process&#160;</text><text text-decoration="none" x="81.5" fill="rgb(75, 75, 75)" font-size="10pt" font-family="Lato"  y="14">5.0</text><text text-decoration="none" x="98.5" fill="rgb(75, 75, 75)" font-size="10pt" font-family="Lato"  y="14"></text><text text-decoration="none" x="65.5" fill="rgb(75, 75, 75)" font-size="10pt" font-family="Lato"  y="33"></text><text text-decoration="none" x="61.5" fill="rgb(75, 75, 75)" font-size="10pt" font-family="Lato"  y="52">--</text><text text-decoration="none" x="69.5" fill="rgb(75, 75, 75)" font-size="10pt" font-family="Lato"  y="52"></text><text text-decoration="none" x="14.5" fill="rgb(75, 75, 75)" font-size="10pt" font-family="Lato"  y="71">Issue&#160;</text><text text-decoration="none" x="48.5" fill="rgb(75, 75, 75)" font-size="10pt" font-family="Lato"  y="71">of&#160;</text><text text-decoration="none" x="63.5" fill="rgb(75, 75, 75)" font-size="10pt" font-family="Lato"  y="71">Passport</text><text text-decoration="none" x="116.5" fill="rgb(75, 75, 75)" font-size="10pt" font-family="Lato"  y="71"></text><text text-decoration="none" x="61.5" fill="rgb(75, 75, 75)" font-size="10pt" font-family="Lato"  y="90">--</text><text text-decoration="none" x="69.5" fill="rgb(75, 75, 75)" font-size="10pt" font-family="Lato"  y="90"></text><text text-decoration="none" x="7" fill="rgb(75, 75, 75)" font-size="10pt" font-family="Lato"  y="109">//This&#160;</text><text text-decoration="none" x="44" fill="rgb(75, 75, 75)" font-size="10pt" font-family="Lato"  y="109">is&#160;</text><text text-decoration="none" x="56" fill="rgb(75, 75, 75)" font-size="10pt" font-family="Lato"  y="109">a&#160;</text><text text-decoration="none" x="66" fill="rgb(75, 75, 75)" font-size="10pt" font-family="Lato"  y="109">comment</text><text text-decoration="none" x="124" fill="rgb(75, 75, 75)" font-size="10pt" font-family="Lato"  y="109"></text><text text-decoration="none" x="7.5" fill="rgb(75, 75, 75)" font-size="10pt" font-family="Lato"  y="128">//&#160;</text><text text-decoration="none" x="20.5" fill="rgb(75, 75, 75)" font-size="10pt" font-family="Lato"  y="128">--&#160;</text><text text-decoration="none" x="31.5" fill="rgb(75, 75, 75)" font-size="10pt" font-family="Lato"  y="128">This&#160;</text><text text-decoration="none" x="58.5" fill="rgb(75, 75, 75)" font-size="10pt" font-family="Lato"  y="128">is&#160;</text><text text-decoration="none" x="70.5" fill="rgb(75, 75, 75)" font-size="10pt" font-family="Lato"  y="128">a&#160;</text><text text-decoration="none" x="80.5" fill="rgb(75, 75, 75)" font-size="10pt" font-family="Lato"  y="128">section&#160;</text><text text-decoration="none" x="48.5" fill="rgb(75, 75, 75)" font-size="10pt" font-family="Lato"  y="150">break</text><text text-decoration="none" x="82.5" fill="#4b4b4b" font-size="10pt" font-family="noto_regular"  y="150"></text></g><g transform="translate(639.25, 1230) rotate(0, 36, 0)" width="72" height="18"><text text-decoration="none" x="2" fill="rgb(75, 75, 75)" font-size="10pt" font-family="noto_regular"  y="17">Description</text><text text-decoration="none" x="70" fill="#4b4b4b" font-size="10pt" font-family="noto_regular"  y="17"></text></g><g transform="translate(648.75, 1262) rotate(0, 26.5, 9)" width="53" height="18"><text text-decoration="none" x="0.5" fill="rgb(80, 80, 80)" font-size="10pt" font-family="noto_regular"  y="17">Location</text><text text-decoration="none" x="52.5" fill="#4b4b4b" font-size="10pt" font-family="noto_regular"  y="17"></text></g></g><g id="17cf8f8fu1"><g transform="translate(780 1215)"><rect x="0" y="0" width="150" height="37" fill="rgba(255,255,255,0.01)" stroke="rgba(255,255,255,0.01)" stroke-width="NaN" stroke-linecap="round" stroke-linejoin="round"/></g><g transform="translate(797, 1224) rotate(0, 58, 9.5)" width="116" height="19"><text text-decoration="none" x="4.5" fill="rgb(75, 75, 75)" font-size="10pt" font-family="Lato"  y="17">Update&#160;</text><text text-decoration="none" x="51.5" fill="rgb(75, 75, 75)" font-size="10pt" font-family="Lato"  y="17">the&#160;</text><text text-decoration="none" x="74.5" fill="rgb(75, 75, 75)" font-size="10pt" font-family="Lato"  y="17">status</text><text text-decoration="none" x="111.5" fill="#4b4b4b" font-size="10pt" font-family="noto_regular"  y="17"></text></g></g><g id="249obh5764"><g transform="translate(560 1145)"><rect x="0" y="0" width="150" height="49.72947692871094" fill="rgba(255,255,255,0.01)" stroke="rgba(255,255,255,0.01)" stroke-width="NaN" stroke-linecap="round" stroke-linejoin="round"/></g><g transform="translate(562, 1160.3647384643555) rotate(0, 73, 9.5)" width="146" height="19"><text text-decoration="none" x="7" fill="rgb(75, 75, 75)" font-size="10pt" font-family="Lato"  y="17">Successful&#160;</text><text text-decoration="none" x="71" fill="rgb(75, 75, 75)" font-size="10pt" font-family="Lato"  y="17">Verification</text><text text-decoration="none" x="139" fill="#4b4b4b" font-size="10pt" font-family="noto_regular"  y="17"></text></g></g><g id="a9wfq250o9"><g><path d="M 750,1240 L 1095,1240 L 1095,960" fill="none" stroke="#f6902a" stroke-width="1.5" stroke-linecap="round" stroke-linejoin="round"/><path d="M 1095,960 L 1089.25,968.695652173913 L 1100.75,968.695652173913 Z" fill="rgb(246,144,42)" stroke="#f6902a" stroke-width="1.5" stroke-linecap="round" stroke-linejoin="round"/></g></g><g id="1mu1fdiz34"><g transform="translate(780 1065)"><rect x="0" y="0" width="150" height="37" fill="rgba(255,255,255,0.01)" stroke="rgba(255,255,255,0.01)" stroke-width="NaN" stroke-linecap="round" stroke-linejoin="round"/></g><g transform="translate(797, 1074) rotate(0, 58, 9.5)" width="116" height="19"><text text-decoration="none" x="4.5" fill="rgb(75, 75, 75)" font-size="10pt" font-family="Lato"  y="17">Update&#160;</text><text text-decoration="none" x="51.5" fill="rgb(75, 75, 75)" font-size="10pt" font-family="Lato"  y="17">the&#160;</text><text text-decoration="none" x="74.5" fill="rgb(75, 75, 75)" font-size="10pt" font-family="Lato"  y="17">status</text><text text-decoration="none" x="111.5" fill="#4b4b4b" font-size="10pt" font-family="noto_regular"  y="17"></text></g></g><g id="22so52botr"><g><path d="M 675,1140 L 675,1195" fill="none" stroke="#f6902a" stroke-width="1.5" stroke-linecap="round" stroke-linejoin="round"/><path d="M 675,1195 L 680.75,1186.304347826087 L 669.25,1186.304347826087 Z" fill="rgb(246,144,42)" stroke="#f6902a" stroke-width="1.5" stroke-linecap="round" stroke-linejoin="round"/></g></g><g id="2jjaw2sad6"><g transform="translate(190 410)"><rect x="0" y="0" width="464.9986267089844" height="82.4595947265625" fill="rgba(255,255,255,0.01)" stroke="rgba(255,255,255,0.01)" stroke-width="NaN" stroke-linecap="round" stroke-linejoin="round"/></g><g transform="translate(220.4993133544922, 418.22979736328125) rotate(0, 202, 33)" width="404" height="66"><text text-decoration="none" x="15" fill="rgb(75, 75, 75)" font-size="21pt" font-family="Lato"  y="30">Level&#160;</text><text text-decoration="none" x="90" fill="rgb(75, 75, 75)" font-size="21pt" font-family="Lato"  y="30">1&#160;</text><text text-decoration="none" x="113" fill="rgb(75, 75, 75)" font-size="21pt" font-family="Lato"  y="30">Passport&#160;</text><text text-decoration="none" x="234" fill="rgb(75, 75, 75)" font-size="21pt" font-family="Lato"  y="30">Automation&#160;</text><text text-decoration="none" x="155" fill="rgb(75, 75, 75)" font-size="21pt" font-family="Lato"  y="68">System</text><text text-decoration="none" x="249" fill="#4b4b4b" font-size="10pt" font-family="noto_regular"  y="68"></text></g></g></svg>